<?xml version="1.0" encoding="utf-8"?>
<!-- Generator: Adobe Illustrator 16.0.0, SVG Export Plug-In . SVG Version: 6.00 Build 0)  -->
<!DOCTYPE svg PUBLIC "-//W3C//DTD SVG 1.1//EN" "http://www.w3.org/Graphics/SVG/1.1/DTD/svg11.dtd">
<svg version="1.1" id="Layer_1" xmlns="http://www.w3.org/2000/svg" xmlns:xlink="http://www.w3.org/1999/xlink" x="0px" y="0px"
	 width="369.004px" height="266.168px" viewBox="0 0 369.004 266.168" enable-background="new 0 0 369.004 266.168"
	 xml:space="preserve">
<g>
	<path fill="#FFFFFF" d="M13.543,234.068c2.023,0,3.906,0.322,5.651,0.968c1.744,0.646,3.253,1.612,4.529,2.901
		c1.276,1.291,2.271,2.901,2.99,4.836c0.718,1.936,1.077,4.207,1.077,6.815c0,2.287-0.293,4.396-0.879,6.333
		c-0.587,1.936-1.474,3.604-2.661,5.014c-1.187,1.406-2.667,2.514-4.44,3.317c-1.774,0.808-3.863,1.211-6.267,1.211H0v-31.396
		H13.543z M13.059,259.66c0.997,0,1.964-0.161,2.902-0.484c0.938-0.322,1.774-0.855,2.507-1.604
		c0.732-0.748,1.319-1.723,1.758-2.926c0.44-1.201,0.66-2.666,0.66-4.396c0-1.583-0.154-3.013-0.461-4.287
		c-0.308-1.274-0.814-2.368-1.518-3.276c-0.703-0.907-1.634-1.604-2.792-2.088c-1.159-0.483-2.588-0.726-4.288-0.726H6.904v19.787
		L13.059,259.66L13.059,259.66z"/>
	<path fill="#FFFFFF" d="M39.487,234.068v31.396h-6.904v-31.396H39.487z"/>
	<path fill="#FFFFFF" d="M50.831,257.727c0.381,0.732,0.886,1.325,1.517,1.779c0.63,0.454,1.37,0.791,2.22,1.012
		c0.85,0.219,1.729,0.33,2.639,0.33c0.615,0,1.275-0.051,1.979-0.154s1.362-0.299,1.979-0.592c0.616-0.295,1.128-0.697,1.539-1.211
		c0.41-0.513,0.615-1.164,0.615-1.957c0-0.85-0.271-1.539-0.813-2.065c-0.542-0.528-1.253-0.968-2.132-1.319
		c-0.88-0.352-1.877-0.658-2.991-0.923c-1.114-0.265-2.243-0.558-3.386-0.881c-1.173-0.292-2.315-0.651-3.43-1.076
		c-1.114-0.426-2.111-0.976-2.99-1.649c-0.88-0.674-1.59-1.518-2.133-2.528s-0.813-2.234-0.813-3.671
		c0-1.611,0.344-3.012,1.034-4.199c0.688-1.188,1.589-2.176,2.704-2.969c1.114-0.791,2.375-1.377,3.782-1.758
		c1.407-0.381,2.814-0.572,4.221-0.572c1.641,0,3.217,0.184,4.727,0.55c1.51,0.367,2.851,0.96,4.023,1.78
		c1.173,0.822,2.103,1.869,2.793,3.145c0.688,1.275,1.033,2.823,1.033,4.639h-6.684c-0.059-0.938-0.257-1.715-0.593-2.33
		c-0.338-0.615-0.785-1.099-1.341-1.45c-0.557-0.351-1.194-0.601-1.913-0.748c-0.719-0.146-1.503-0.22-2.353-0.22
		c-0.557,0-1.114,0.06-1.67,0.177c-0.558,0.116-1.063,0.321-1.518,0.614c-0.455,0.295-0.828,0.66-1.121,1.1
		s-0.439,0.998-0.439,1.672c0,0.615,0.116,1.114,0.351,1.495c0.234,0.382,0.696,0.733,1.386,1.056
		c0.688,0.323,1.642,0.645,2.858,0.969c1.216,0.321,2.807,0.731,4.771,1.229c0.586,0.117,1.4,0.33,2.441,0.638
		c1.04,0.309,2.073,0.799,3.099,1.475c1.026,0.674,1.913,1.574,2.661,2.703c0.747,1.129,1.121,2.571,1.121,4.332
		c0,1.436-0.279,2.77-0.835,4c-0.557,1.231-1.385,2.295-2.484,3.188c-1.1,0.895-2.462,1.592-4.089,2.089
		c-1.627,0.498-3.511,0.748-5.651,0.748c-1.729,0-3.407-0.214-5.034-0.639s-3.064-1.093-4.31-2s-2.235-2.067-2.968-3.474
		c-0.733-1.408-1.085-3.078-1.056-5.014h6.684C50.259,256.098,50.45,256.993,50.831,257.727z"/>
	<path fill="#FFFFFF" d="M71.628,239.873v-5.805h25.724v5.805h-9.409v25.592h-6.904v-25.592H71.628z"/>
	<path fill="#FFFFFF" d="M117.887,234.068c1.407,0,2.674,0.229,3.804,0.681c1.128,0.455,2.095,1.078,2.901,1.87
		c0.806,0.791,1.422,1.707,1.847,2.747c0.425,1.042,0.638,2.163,0.638,3.364c0,1.848-0.389,3.443-1.165,4.793
		c-0.777,1.349-2.044,2.373-3.804,3.078v0.088c0.85,0.234,1.553,0.593,2.11,1.076c0.557,0.483,1.012,1.058,1.364,1.717
		c0.352,0.658,0.608,1.385,0.769,2.176c0.161,0.792,0.271,1.583,0.33,2.374c0.028,0.5,0.059,1.085,0.088,1.76
		c0.029,0.674,0.08,1.362,0.154,2.065c0.073,0.703,0.19,1.371,0.351,2c0.161,0.632,0.403,1.166,0.726,1.606h-6.903
		c-0.381-0.996-0.616-2.185-0.704-3.562c-0.088-1.379-0.22-2.697-0.396-3.959c-0.235-1.641-0.733-2.842-1.494-3.604
		c-0.763-0.761-2.009-1.144-3.738-1.144h-6.903v12.27h-6.904v-31.396H117.887L117.887,234.068z M115.424,248.271
		c1.583,0,2.77-0.354,3.562-1.058c0.792-0.702,1.187-1.847,1.187-3.429c0-1.524-0.396-2.631-1.187-3.32
		c-0.792-0.688-1.979-1.031-3.562-1.031h-7.563v8.838H115.424z"/>
	<path fill="#FFFFFF" d="M139.608,234.068v31.396h-6.904v-31.396H139.608z"/>
	<path fill="#FFFFFF" d="M165.815,242.445c-0.411-0.659-0.924-1.238-1.539-1.736c-0.616-0.499-1.312-0.887-2.089-1.166
		s-1.59-0.418-2.44-0.418c-1.554,0-2.873,0.302-3.957,0.9c-1.085,0.602-1.964,1.408-2.639,2.42c-0.675,1.012-1.165,2.16-1.473,3.451
		c-0.308,1.289-0.461,2.623-0.461,4c0,1.32,0.153,2.603,0.461,3.85c0.308,1.246,0.798,2.367,1.473,3.363
		c0.674,0.996,1.554,1.797,2.639,2.396c1.084,0.603,2.403,0.902,3.957,0.902c2.11,0,3.76-0.646,4.947-1.937
		c1.187-1.289,1.913-2.988,2.176-5.102h6.684c-0.176,1.965-0.63,3.738-1.363,5.32c-0.733,1.584-1.7,2.933-2.902,4.045
		c-1.203,1.115-2.609,1.965-4.221,2.553c-1.612,0.585-3.386,0.879-5.321,0.879c-2.404,0-4.566-0.417-6.486-1.254
		c-1.92-0.834-3.539-1.985-4.858-3.452c-1.319-1.465-2.33-3.187-3.034-5.166s-1.055-4.11-1.055-6.397
		c0-2.346,0.352-4.521,1.055-6.528c0.704-2.009,1.715-3.761,3.034-5.255c1.319-1.495,2.938-2.667,4.858-3.52
		c1.92-0.85,4.083-1.275,6.486-1.275c1.729,0,3.363,0.252,4.903,0.748c1.539,0.498,2.916,1.226,4.133,2.178
		c1.216,0.953,2.221,2.133,3.012,3.539c0.792,1.406,1.29,3.021,1.495,4.837h-6.684C166.489,243.83,166.225,243.105,165.815,242.445z
		"/>
	<path fill="#FFFFFF" d="M175.796,239.873v-5.805h25.724v5.805h-9.41v25.592h-6.903v-25.592H175.796z"/>
	<path fill="#FFFFFF" d="M233.465,238.354c-1.392-1.012-3.173-1.516-5.343-1.516c-0.879,0-1.744,0.087-2.595,0.264
		c-0.851,0.176-1.604,0.469-2.264,0.879c-0.658,0.412-1.188,0.961-1.582,1.648c-0.396,0.689-0.595,1.548-0.595,2.573
		c0,0.968,0.286,1.752,0.858,2.353c0.57,0.602,1.332,1.092,2.287,1.473c0.951,0.383,2.029,0.697,3.23,0.947
		c1.203,0.248,2.428,0.52,3.671,0.812c1.247,0.295,2.472,0.638,3.673,1.034c1.201,0.396,2.278,0.931,3.231,1.604
		c0.951,0.673,1.715,1.523,2.287,2.55c0.571,1.026,0.856,2.315,0.856,3.869c0,1.67-0.373,3.102-1.121,4.287
		c-0.748,1.188-1.709,2.154-2.881,2.902c-1.173,0.747-2.483,1.29-3.936,1.627c-1.451,0.336-2.895,0.506-4.331,0.506
		c-1.759,0-3.423-0.22-4.99-0.66c-1.569-0.439-2.946-1.105-4.133-2c-1.188-0.895-2.127-2.038-2.815-3.431
		c-0.688-1.394-1.033-3.041-1.033-4.946h3.959c0,1.319,0.256,2.455,0.769,3.408c0.513,0.952,1.187,1.736,2.022,2.352
		c0.836,0.616,1.811,1.071,2.925,1.363c1.114,0.294,2.257,0.439,3.429,0.439c0.939,0,1.883-0.088,2.837-0.265
		c0.953-0.176,1.81-0.476,2.572-0.899c0.761-0.426,1.378-1.006,1.846-1.737c0.47-0.731,0.704-1.671,0.704-2.813
		c0-1.086-0.286-1.963-0.857-2.64c-0.57-0.674-1.334-1.223-2.287-1.649c-0.952-0.424-2.029-0.769-3.23-1.031
		c-1.203-0.264-2.427-0.535-3.673-0.813s-2.47-0.602-3.671-0.968c-1.203-0.366-2.28-0.85-3.23-1.451
		c-0.953-0.6-1.716-1.378-2.287-2.331c-0.572-0.95-0.857-2.146-0.857-3.583c0-1.583,0.322-2.953,0.967-4.111
		c0.645-1.156,1.501-2.109,2.572-2.857c1.068-0.747,2.285-1.305,3.648-1.671c1.364-0.366,2.764-0.55,4.2-0.55
		c1.611,0,3.106,0.191,4.485,0.572c1.378,0.381,2.587,0.981,3.627,1.803c1.04,0.82,1.861,1.854,2.463,3.1
		c0.6,1.247,0.93,2.734,0.988,4.463h-3.957C235.67,241.002,234.857,239.366,233.465,238.354z"/>
	<path fill="#FFFFFF" d="M245.426,243.588c0.631-1.979,1.575-3.729,2.836-5.255c1.262-1.522,2.829-2.74,4.705-3.649
		c1.876-0.906,4.061-1.363,6.551-1.363c2.492,0,4.678,0.457,6.553,1.363c1.877,0.909,3.445,2.127,4.707,3.649
		c1.259,1.524,2.205,3.276,2.834,5.255c0.63,1.979,0.947,4.039,0.947,6.18c0,2.14-0.317,4.197-0.947,6.178
		c-0.629,1.979-1.575,3.73-2.834,5.254c-1.262,1.523-2.83,2.734-4.707,3.628c-1.875,0.894-4.061,1.342-6.553,1.342
		c-2.49,0-4.675-0.448-6.551-1.342s-3.443-2.104-4.705-3.628c-1.261-1.522-2.205-3.275-2.836-5.254
		c-0.631-1.979-0.945-4.038-0.945-6.178C244.48,247.627,244.795,245.566,245.426,243.588z M249.271,254.449
		c0.412,1.539,1.058,2.924,1.937,4.154c0.879,1.231,2.007,2.222,3.388,2.969c1.375,0.748,3.018,1.121,4.922,1.121
		c1.907,0,3.549-0.373,4.926-1.121c1.379-0.747,2.507-1.736,3.388-2.969c0.879-1.23,1.521-2.615,1.935-4.154
		c0.41-1.539,0.616-3.1,0.616-4.684s-0.206-3.144-0.616-4.683c-0.412-1.54-1.056-2.925-1.935-4.156
		c-0.881-1.229-2.009-2.221-3.388-2.968c-1.377-0.748-3.019-1.121-4.926-1.121c-1.904,0-3.547,0.373-4.922,1.121
		c-1.381,0.747-2.509,1.736-3.388,2.968s-1.524,2.616-1.937,4.156c-0.408,1.539-0.613,3.099-0.613,4.683
		S248.863,252.91,249.271,254.449z"/>
	<path fill="#FFFFFF" d="M301.51,263.156c-2.14,2.007-5.188,3.012-9.146,3.012c-4.044,0-7.204-0.96-9.476-2.881
		c-2.271-1.92-3.406-4.977-3.406-9.168v-20.051h4.177v20.051c0,2.812,0.747,4.945,2.241,6.398c1.494,1.449,3.65,2.176,6.464,2.176
		c2.667,0,4.696-0.727,6.091-2.176c1.395-1.453,2.09-3.586,2.09-6.398v-20.051h4.178v20.051
		C304.723,258.135,303.648,261.148,301.51,263.156z"/>
	<path fill="#FFFFFF" d="M315.801,234.068l16.533,25.459h0.086v-25.459h3.958v31.396h-4.572l-16.401-25.196h-0.087v25.196h-3.956
		v-31.396H315.801z"/>
	<path fill="#FFFFFF" d="M353.922,234.068c4.838,0,8.562,1.229,11.17,3.693c2.609,2.463,3.912,6.215,3.912,11.256
		c0,2.64-0.293,4.979-0.877,7.016c-0.588,2.037-1.497,3.752-2.728,5.144c-1.23,1.394-2.802,2.455-4.705,3.188
		c-1.905,0.734-4.162,1.101-6.772,1.101h-10.772V234.07h10.772V234.068z M354.275,261.947c0.468,0,1.054-0.038,1.758-0.111
		c0.703-0.07,1.45-0.248,2.242-0.527c0.793-0.277,1.574-0.682,2.353-1.207c0.778-0.529,1.474-1.248,2.09-2.156
		s1.121-2.045,1.518-3.408c0.395-1.361,0.593-3.012,0.593-4.946c0-1.874-0.183-3.555-0.549-5.034
		c-0.367-1.48-0.968-2.74-1.806-3.781c-0.834-1.041-1.909-1.832-3.229-2.375c-1.319-0.541-2.945-0.812-4.881-0.812h-7.037v24.361
		h6.948V261.947z"/>
</g>
<rect fill="#FFFFFF" width="81" height="216"/>
<rect x="95.667" fill="#FFFFFF" width="75.333" height="216"/>
<rect x="189" fill="#FFFFFF" width="81" height="135"/>
<rect x="189" y="153" fill="#FFFFFF" width="81" height="63"/>
<rect x="288" fill="#FFFFFF" width="81" height="54"/>
<rect x="288" y="72" fill="#FFFFFF" width="81" height="144"/>
</svg>
